/* XPM */
static char * siril_1_32x32_xpm[] = {
"32 24 20 1",
" 	c None",
".	c #13130D",
"+	c #13120D",
"@	c #12120D",
"#	c #12120C",
"$	c #13110D",
"%	c #14120E",
"&	c #FFFFFF",
"*	c #12120E",
"=	c #14110C",
"-	c #13130E",
";	c #000000",
">	c #951B80",
",	c #951A81",
"'	c #951B81",
")	c #821872",
"!	c #961B81",
"~	c #951C80",
"{	c #941B80",
"]	c #14120D",
"  ..++++++++++++++++++++++++..  ",
" ++++++++++++++++++++++++++++++ ",
"@+++++++++++++++@+++++++++#+$++@",
".+++++++++++++++%&&++*&&++&&.++.",
"++++++++++++++++@==++%==++*=-+++",
"++++++++++++++++++++++++++++++++",
"++++++++++++++++++++++++++++++++",
"+%&&&&&&&&&&&&&&&&&&&&&&&&&&&&%+",
"+%&&&&&&&&&&&&;&&&&&&&&;;;&&&&%+",
"+%&&&&&&&&&;;;&;;;;&&;;&&&&&&&%+",
"+%&&&&&&&&;&&&&&&&;;;&&;;;;;&&%+",
"+%&&&&&&&;&;;&&&&;;;;;;&&&&&&&%+",
"+%&&&&&&;;&;;&&&;;;;;;;;;;&&&&%+",
"+%&&&&&&;;;&>,');;;;;;&&&&&&&&%+",
"+%&&&&&&;;;&&'''!&&&&;&&&&&&&&%+",
"+%&&&&&&;;;&~'',&&&&&;&&&&&&&&%+",
"+%&&&&&&;;&&&&&{&;;;&;&&&&&&&&%+",
"+%&&&&&&;;;;;;;&;;;;;&&&&&&&&&%+",
"+%&&&&&&&;;;;;;;;;;;;&&&&&&&&&%+",
"+%&&&&&&&&;;;;;;;;;;&&&&&&&&&&%+",
".]&&&&&&&&&&;;;;;;&&&&&&&&&&&&].",
"@+&&&&&&&&&&&&&&&&&&&&&&&&&&&&+@",
" ++.$$$$$$$$$$$$$$$$$$$$$$$$.++ ",
"  ..++++++++++++++++++++++++..  "};
